<svg id="Layer_1" data-name="Layer 1" xmlns="http://www.w3.org/2000/svg" viewBox="0 0 51 64"><defs><style>.cls-1{fill:#62cbc9;}.cls-2{fill:#231f20;}</style></defs><path class="cls-1" d="M17.44,49.89l0,0,.26.07a25.09,25.09,0,0,0,4.58,1c5.9,1,4,6.47-.73,10.66a1.21,1.21,0,0,0,1.19,2.06C30,61.23,42.94,51.77,48.86,35.92a24.28,24.28,0,0,0,1.19-3.39c.07-.25.18-.46.25-.72l0-.09a25.89,25.89,0,0,0,.74-6A25.5,25.5,0,1,0,17.44,49.89Z"/><path class="cls-2" d="M7.43,15.51h6v1.83H9.52v1.27h3.55v1.73H9.52V23H7.43Z"/><path class="cls-2" d="M14.4,15.51H18a3.28,3.28,0,0,1,2.44.81,2.33,2.33,0,0,1,.67,1.74v0a2.37,2.37,0,0,1-1.55,2.31L21.31,23h-2.4L17.4,20.75h-.92V23H14.4Zm3.46,3.61c.7,0,1.12-.35,1.12-.89v0c0-.6-.44-.9-1.13-.9H16.48v1.82Z"/><path class="cls-2" d="M22.11,15.51h6v1.76h-4v1.15h3.6v1.64h-3.6v1.19h4V23H22.11Z"/><path class="cls-2" d="M28.71,21.91l1.16-1.39a3.87,3.87,0,0,0,2.43.9c.57,0,.87-.19.87-.51v0c0-.33-.25-.49-1.28-.73-1.59-.37-2.83-.82-2.83-2.35v0c0-1.4,1.11-2.41,2.91-2.41a4.76,4.76,0,0,1,3.09,1l-1,1.47a3.72,3.72,0,0,0-2.1-.74c-.51,0-.76.2-.76.48v0c0,.35.26.5,1.31.73,1.72.38,2.79.94,2.79,2.34v0c0,1.54-1.21,2.45-3,2.45A5.29,5.29,0,0,1,28.71,21.91Z"/><path class="cls-2" d="M36.27,15.51h2.08v2.81H41V15.51H43.1V23H41V20.17H38.35V23H36.27Z"/><path class="cls-2" d="M9.4,32.16v0a3.9,3.9,0,0,1,4-3.91,4.34,4.34,0,0,1,3,1.09L15.26,30.8a2.64,2.64,0,0,0-1.81-.71,2,2,0,0,0-1.92,2.05v0a2,2,0,0,0,2,2.09,2,2,0,0,0,1.21-.31V33H13.3V31.51h3.44v3.37A5,5,0,0,1,13.48,36,3.85,3.85,0,0,1,9.4,32.16Z"/><path class="cls-2" d="M17.9,28.38h3.55a3.36,3.36,0,0,1,2.45.81,2.34,2.34,0,0,1,.66,1.75v0A2.38,2.38,0,0,1,23,33.28l1.79,2.61H22.42L20.9,33.62H20v2.27H17.9ZM21.36,32c.7,0,1.12-.34,1.12-.89v0c0-.6-.44-.9-1.13-.9H20V32Z"/><path class="cls-2" d="M28.07,28.33h2l3.19,7.56H31l-.54-1.35H27.6l-.54,1.35H24.88Zm1.82,4.59-.83-2.12-.85,2.12Z"/><path class="cls-2" d="M34,28.38h2.91c2.67,0,4.23,1.55,4.23,3.72v0c0,2.17-1.58,3.77-4.27,3.77H34Zm2.08,1.84v3.83h.85A1.84,1.84,0,0,0,39,32.15v0a1.86,1.86,0,0,0-2.08-1.91Z"/></svg>