<?xml version="1.0" encoding="utf-8"?>
<!-- Generator: Adobe Illustrator 23.0.1, SVG Export Plug-In . SVG Version: 6.00 Build 0)  -->
<svg version="1.1" id="Layer_1" xmlns="http://www.w3.org/2000/svg" xmlns:xlink="http://www.w3.org/1999/xlink" x="0px" y="0px"
	 viewBox="0 0 26.7 27" style="enable-background:new 0 0 26.7 27;" xml:space="preserve">
<style type="text/css">
	.st0{fill:#62cbc9;}
</style>
<g>
	<path class="st0" d="M9.9,21.1C9.9,21.1,9.9,21.1,9.9,21.1c0,0,0.1,0,0.1,0c0.6,0.2,1.3,0.3,1.9,0.4c2.5,0.4,1.7,2.7-0.3,4.5
		c-0.4,0.4,0,1.1,0.5,0.9c3.1-1.1,8.6-5.1,11.1-11.8c0.2-0.5,0.4-0.9,0.5-1.4c0-0.1,0.1-0.2,0.1-0.3c0,0,0,0,0,0
		c0.2-0.8,0.3-1.7,0.3-2.5c0-6-4.8-10.8-10.8-10.8C7.3,0,2.5,4.8,2.5,10.8C2.5,15.6,5.6,19.7,9.9,21.1"/>
</g>
</svg>
