<svg xmlns="http://www.w3.org/2000/svg" viewBox="0 0 23 29"><defs><style>.cls-1{fill:#62cbc9;}.cls-2{fill:#231f20;}</style></defs><g id="Layer_2" data-name="Layer 2"><path class="cls-1" d="M7.87,22.57h0l.11,0a11.92,11.92,0,0,0,2.07.45c2.66.44,1.79,2.92-.33,4.81a.55.55,0,0,0,.54.93c3.29-1.12,9.12-5.38,11.78-12.53a9.9,9.9,0,0,0,.54-1.53c0-.11.08-.21.11-.32s0,0,0-.05a11.5,11.5,0,1,0-14.8,8.2Z"/><path class="cls-2" d="M3.35,7.06H6.06v.83H4.29v.57h1.6v.78H4.29v1.21H3.35Z"/><path class="cls-2" d="M6.49,7.06h1.6a1.51,1.51,0,0,1,1.11.37,1,1,0,0,1,.3.79h0a1.07,1.07,0,0,1-.7,1l.81,1.18H8.53l-.68-1H7.43v1H6.49ZM8.06,8.69c.31,0,.5-.16.5-.4h0c0-.27-.2-.41-.51-.41H7.43v.82Z"/><path class="cls-2" d="M10,7.06h2.72v.8H10.9v.52h1.63v.74H10.9v.53h1.82v.8H10Z"/><path class="cls-2" d="M13,10l.52-.63a1.75,1.75,0,0,0,1.1.41c.25,0,.39-.09.39-.23h0c0-.15-.11-.22-.58-.33-.72-.17-1.27-.37-1.27-1.06h0c0-.63.49-1.08,1.31-1.08a2.11,2.11,0,0,1,1.39.45l-.47.66a1.7,1.7,0,0,0-.95-.34c-.22,0-.34.1-.34.22h0c0,.16.12.22.59.33.78.17,1.26.42,1.26,1.06h0c0,.69-.54,1.1-1.37,1.1A2.37,2.37,0,0,1,13,10Z"/><path class="cls-2" d="M16.36,7.06h.94V8.33h1.2V7.06h.94v3.39H18.5V9.16H17.3v1.29h-.94Z"/><path class="cls-2" d="M4.24,14.57h0A1.76,1.76,0,0,1,6.06,12.8a2,2,0,0,1,1.37.49L6.88,14a1.2,1.2,0,0,0-.82-.32.89.89,0,0,0-.86.92h0a.9.9,0,0,0,.92.95,1,1,0,0,0,.54-.14V15H6v-.68H7.55V15.8a2.25,2.25,0,0,1-1.47.52A1.73,1.73,0,0,1,4.24,14.57Z"/><path class="cls-2" d="M8.07,12.87h1.6a1.55,1.55,0,0,1,1.11.36,1.06,1.06,0,0,1,.3.79h0a1.09,1.09,0,0,1-.7,1.05l.81,1.18H10.11l-.68-1H9v1H8.07ZM9.63,14.5c.32,0,.51-.16.51-.41h0c0-.27-.2-.4-.51-.4H9v.82Z"/><path class="cls-2" d="M12.66,12.85h.9L15,16.26H14l-.24-.61H12.45l-.25.61h-1Zm.82,2.07-.38-1-.38,1Z"/><path class="cls-2" d="M15.33,12.87h1.32a1.68,1.68,0,0,1,1.9,1.67h0a1.72,1.72,0,0,1-1.92,1.71h-1.3Zm.94.83v1.72h.39a.83.83,0,0,0,.93-.85h0a.83.83,0,0,0-.93-.86Z"/></g></svg>