<svg id="Layer_1" data-name="Layer 1" xmlns="http://www.w3.org/2000/svg" viewBox="0 0 80 27"><defs><style>.cls-1{fill:#fff;}</style></defs><path class="cls-1" d="M26.15,1.74h5.9c4.51,0,7.29,1.78,7.29,6.61a5.6,5.6,0,0,1-2.13,4.72c2.86.51,4.15,3.41,4.15,6.09,0,4.76-3.35,6.9-7.76,6.9H26.15Zm4.74,10.13h.58c2.32,0,3.45-.68,3.45-3.2S33.5,5.55,31.49,5.55h-.6Zm0,10.38h1c2.55,0,4.73-.33,4.73-3.48s-2.58-3.29-5-3.29h-.77Z"/><path class="cls-1" d="M51.87,26.06H47.14V5.87H42.23V1.74H56.78V5.87H51.87Z"/><path class="cls-1" d="M80,13.12v.62c0,6.87-3.52,13-11.07,13-7.09,0-11.57-6-11.57-12.7C57.36,7.07,62,1.1,69.23,1.1a10.49,10.49,0,0,1,9.6,5.81L74.64,9.16a6.19,6.19,0,0,0-5.55-3.87c-4.58,0-6.83,4.67-6.83,8.71s2.29,8.51,6.87,8.51A5.74,5.74,0,0,0,74.67,17H69.52V13.12Z"/><path class="cls-1" d="M0,.3H8.61l-.2,11.17h.2A10.24,10.24,0,0,1,9.82,8.56L14.09.3h9.64L16.12,12.83,24.53,26H14.28l-4.19-7.79a12,12,0,0,1-1.48-3h-.2L8.61,26H0Z"/></svg>