<svg id="Layer_1" data-name="Layer 1" xmlns="http://www.w3.org/2000/svg" viewBox="0 0 90 41"><defs><style>.cls-1{fill:#fff;}</style></defs><path class="cls-1" d="M8.85,21.68h4.23v2.11a5.29,5.29,0,0,1,4.37-2.39c3.2,0,5.07,2.12,5.07,5.54V36.6H18.29V28.27c0-2-.95-3-2.56-3s-2.65,1-2.65,3V36.6H8.85Z"/><path class="cls-1" d="M25.08,34.44l1.75-2.69a8.2,8.2,0,0,0,4.56,1.72c1.18,0,1.72-.43,1.72-1.08v0c0-.89-1.4-1.19-3-1.67-2-.6-4.31-1.54-4.31-4.35v-.05c0-2.94,2.37-4.58,5.28-4.58a10,10,0,0,1,5.4,1.67l-1.57,2.83A8.53,8.53,0,0,0,31,24.84c-1,0-1.51.43-1.51,1v.05c0,.81,1.38,1.19,2.94,1.73,2,.67,4.37,1.64,4.37,4.29V32c0,3.21-2.4,4.67-5.53,4.67A10.12,10.12,0,0,1,25.08,34.44Z"/><path class="cls-1" d="M39.37,21.77h4.1v2.08A5.32,5.32,0,0,1,48,21.5c3.38,0,6.59,2.65,6.59,7.48V29c0,4.83-3.16,7.48-6.59,7.48a5.58,5.58,0,0,1-4.51-2.16v6.21h-4.1ZM50.47,29V29a3.69,3.69,0,0,0-3.54-4c-1.92,0-3.51,1.59-3.51,4V29c0,2.4,1.59,4,3.51,4A3.67,3.67,0,0,0,50.47,29Z"/><path class="cls-1" d="M64.87,21.74h4.21v3c.86-2.05,2.25-3.38,4.74-3.27v4.41H73.6c-2.8,0-4.52,1.69-4.52,5.24V36.6H64.87Z"/><path class="cls-1" d="M75.7,29.21v-.05a7.18,7.18,0,0,1,7.2-7.45c4.87,0,7.1,3.71,7.1,7.77,0,.32,0,.69,0,1.06H79.8a3.37,3.37,0,0,0,3.57,2.8,4.81,4.81,0,0,0,3.53-1.46l2.37,2.05a7.34,7.34,0,0,1-6,2.67C78.93,36.6,75.7,33.58,75.7,29.21ZM86,28c-.25-1.81-1.34-3-3.08-3s-2.82,1.2-3.15,3Z"/><polygon class="cls-1" points="61.34 36.14 61.34 21.7 56.05 21.7 56.05 22.19 57.1 22.19 57.1 36.14 56.05 36.14 56.05 36.63 62.4 36.63 62.4 36.14 61.34 36.14"/><polygon class="cls-1" points="5.3 36.14 5.3 21.7 0 21.7 0 22.19 1.05 22.19 1.05 36.14 0 36.14 0 36.63 6.35 36.63 6.35 36.14 5.3 36.14"/><path class="cls-1" d="M57.15,15h0l.08,0a6.66,6.66,0,0,0,1.34.29c1.72.29,1.16,1.9-.22,3.12a.35.35,0,0,0,.35.6,14.09,14.09,0,0,0,7.64-8.12,8.29,8.29,0,0,0,.35-1c0-.07,0-.14.07-.21v0A7.23,7.23,0,0,0,67,7.89,7.46,7.46,0,1,0,57.15,15Z"/><path class="cls-1" d="M7.41,10.72H9.06c1.27,0,2,.5,2,1.85a1.56,1.56,0,0,1-.59,1.32,1.61,1.61,0,0,1,1.16,1.71c0,1.33-.94,1.93-2.17,1.93H7.41Zm1.33,2.84H8.9c.65,0,1-.19,1-.9s-.4-.87-1-.87H8.74Zm0,2.91H9c.71,0,1.32-.1,1.32-1s-.72-.92-1.39-.92H8.74Z"/><path class="cls-1" d="M14.61,17.53H13.29V11.88H11.91V10.72H16v1.16H14.61Z"/><path class="cls-1" d="M22.49,13.91v.17c0,1.93-1,3.63-3.1,3.63a3.33,3.33,0,0,1-3.24-3.56,3.39,3.39,0,0,1,3.32-3.61,2.93,2.93,0,0,1,2.69,1.63L21,12.8a1.74,1.74,0,0,0-1.56-1.08c-1.28,0-1.91,1.31-1.91,2.43a2.16,2.16,0,0,0,1.92,2.39A1.61,1.61,0,0,0,21,15H19.55V13.91Z"/><path class="cls-1" d="M.09,10.32H2.5l-.06,3.13H2.5a3,3,0,0,1,.34-.82L4,10.32H6.73L4.6,13.83,7,17.53H4.09L2.91,15.35a3.32,3.32,0,0,1-.41-.85H2.44l.06,3H.09Z"/></svg>